# xmcd CD database file
#
# Track frame offsets:
#	150
#	14225
#	30363
#	44936
#	59444
#	72628
#	92063
#	112107
#	130772
#	149812
#	167239
#	186414
#	206279
#	223218
#	244791
#	267520
#	288629
#	309107
#	326702
#	342496
#
# Disc length: 4765 seconds
#
# Revision: 3
# Processed by: cddbd v1.5.2PL0 Copyright (c) Steve Scherf et al.
# Submitted via: CDex 1.51
#
DISCID=54129b14
DTITLE=Various Artist - ZM-Pop-B-Disc-5
DYEAR=1900
DGENRE=Blues
TTITLE0=Loveable Rogues - What A Night
TTITLE1=One Direction - Best Song Ever
TTITLE2=One Direction - Diana
TTITLE3=One Direction - Midnight Memories
TTITLE4=One Direction - One Way Or Another (teenage kicks)
TTITLE5=One Direction - Story Of My life
TTITLE6=Passenger - Let Her Go
TTITLE7=Pharrell Williams - Happy
TTITLE8=Pink Ft Nate Ruess - Just Give Me A Reason
TTITLE9=Psy - Gangnam Style
TTITLE10=Rihanna - What Now
TTITLE11=Rita Ora - Radioactive
TTITLE12=Rizzle Kicks - Lost Generation
TTITLE13=Robbie Williams - Be A Boy
TTITLE14=Robbie Williams - Different
TTITLE15=Robbie Williams - Go Gentle
TTITLE16=Robin Thicke Ft T I and Pharrell Williams - Blurred Lines
TTITLE17=Sam Bailey - Skyscraper
TTITLE18=Saturdays The - Disco Love
TTITLE19=Union J - Carry You
EXTD=
EXTT0=
EXTT1=
EXTT2=
EXTT3=
EXTT4=
EXTT5=
EXTT6=
EXTT7=
EXTT8=
EXTT9=
EXTT10=
EXTT11=
EXTT12=
EXTT13=
EXTT14=
EXTT15=
EXTT16=
EXTT17=
EXTT18=
EXTT19=
PLAYORDER=
